HIERARCHY
ROOT Hips
{
	OFFSET -0.179506 -22.333345 2.821913
	CHANNELS 6 Xposition Yposition Zposition Zrotation Yrotation Xrotation 
	JOINT LeftUpLeg
	{
		OFFSET 6.951974 -9.140623 -0.681533
		CHANNELS 3 Zrotation Yrotation Xrotation
		JOINT LeftLeg
		{
			OFFSET 3.427654 -37.519855 -0.449580
			CHANNELS 3 Zrotation Yrotation Xrotation
			JOINT LeftFoot
			{
				OFFSET -1.359570 -39.796059 -4.369333
				CHANNELS 3 Zrotation Yrotation Xrotation
				JOINT LeftToe
				{
					OFFSET 2.635814 -5.579078 11.928840
					CHANNELS 3 Zrotation Yrotation Xrotation
					End Site
					{
						OFFSET 0.000000 0.000000 0.000000
					}
				}
			}
		}
	}
	JOINT RightUpLeg
	{
		OFFSET -6.767048 -9.052170 -0.431982
		CHANNELS 3 Zrotation Yrotation Xrotation
		JOINT RightLeg
		{
			OFFSET -3.829005 -38.256897 -0.885003
			CHANNELS 3 Zrotation Yrotation Xrotation
			JOINT RightFoot
			{
				OFFSET 1.577377 -39.841461 -4.231180
				CHANNELS 3 Zrotation Yrotation Xrotation
				JOINT RightToe
				{
					OFFSET -2.537174 -4.814398 12.334795
					CHANNELS 3 Zrotation Yrotation Xrotation
					End Site
					{
						OFFSET 0.000000 0.000000 0.000000
					}
				}
			}
		}
	}
	JOINT Spine
	{
		OFFSET -0.253288 10.896323 -2.669631
		CHANNELS 3 Zrotation Yrotation Xrotation
		JOINT Spine1
		{
			OFFSET 0.548704 13.518043 0.109247
			CHANNELS 3 Zrotation Yrotation Xrotation
			JOINT Spine2
			{
				OFFSET 0.145701 5.292222 2.542457
				CHANNELS 3 Zrotation Yrotation Xrotation
				JOINT Neck
				{
					OFFSET -0.277840 21.387037 -4.285703
					CHANNELS 3 Zrotation Yrotation Xrotation
					JOINT Head
					{
						OFFSET 0.515184 6.496960 5.134897
						CHANNELS 3 Zrotation Yrotation Xrotation
						End Site
						{
							OFFSET 0.000000 0.000000 0.000000
						}
					}
				}
				JOINT LeftShoulder
				{
					OFFSET 7.884473 12.174932 -3.408961
					CHANNELS 3 Zrotation Yrotation Xrotation
					JOINT LeftArm
					{
						OFFSET 9.097692 3.046888 -0.886815
						CHANNELS 3 Zrotation Yrotation Xrotation
						JOINT LeftForeArm
						{
							OFFSET 25.961220 -1.277207 -2.745643
							CHANNELS 3 Zrotation Yrotation Xrotation
							JOINT LeftHand
							{
								OFFSET 24.923361 0.898606 -0.117091
								CHANNELS 3 Zrotation Yrotation Xrotation
								End Site
								{
									OFFSET 0.000000 0.000000 0.000000
								}
							}
						}
					}
				}
				JOINT RightShoulder
				{
					OFFSET -8.175920 11.883285 -3.861528
					CHANNELS 3 Zrotation Yrotation Xrotation
					JOINT RightArm
					{
						OFFSET -9.601238 3.255117 -0.914307
						CHANNELS 3 Zrotation Yrotation Xrotation
						JOINT RightForeArm
						{
							OFFSET -25.374195 -1.332924 -2.140099
							CHANNELS 3 Zrotation Yrotation Xrotation
							JOINT RightHand
							{
								OFFSET -25.529810 0.777228 -0.555919
								CHANNELS 3 Zrotation Yrotation Xrotation
								End Site
								{
									OFFSET 0.000000 0.000000 0.000000
								}
							}
						}
					}
				}
			}
		}
	}
}
MOTION
Frames: 12
Frame Time: 0.033333
49.145435 17.721197 81.332321 83.625771 -15.558674 99.832441 2.914324 -8.398276 -0.193378 -20.853324 -12.026324 59.264322 -2.695054 3.244813 -7.669587 nan nan nan 9.554525 0.465815 -33.538752 9.128083 -15.043468 41.963226 -12.596390 -9.514701 -25.904657 nan nan nan -4.390714 -2.147695 11.183899 -5.045499 0.298155 8.273758 -2.144224 -0.957488 -8.097951 -5.935993 -3.952388 -6.753449 13.576638 -7.583513 -21.839447 -21.509040 -4.272601 -3.926129 -28.092955 -10.423807 10.145075 157.557127 -62.063584 -135.684059 -8.198120 -17.275423 26.066277 13.855851 6.991438 3.305719 39.734950 -9.073797 9.815809 69.366697 71.992515 84.284608 18.513488 21.814364 -9.658902 
50.842091 17.882528 80.883522 82.332798 -15.659511 99.742963 2.968583 -8.516397 -2.436726 -20.049111 -8.321026 63.727253 -1.766224 3.722052 -8.658953 nan nan nan 9.750408 0.516569 -31.762275 8.828990 -14.281906 42.624189 -12.995550 -9.593877 -28.535838 nan nan nan -4.254338 -1.113181 11.419555 -4.885386 0.422812 8.186977 -2.113425 -0.791511 -7.761980 -5.993345 -5.105840 -6.257081 13.428685 -8.535696 -22.103577 -22.048402 -3.666652 -3.723298 -28.554437 -9.454076 10.963777 159.057840 -63.804644 -136.685846 -8.780342 -17.102383 25.273543 14.865875 6.967008 2.877009 39.554994 -8.304806 9.476637 69.158960 73.625595 83.926865 17.942162 21.743877 -8.801154 
52.518185 18.023251 80.354805 80.885524 -15.664983 99.483325 3.240089 -8.576121 -4.580811 -18.676328 -4.588029 68.129814 -0.850636 4.702783 -9.718018 nan nan nan 10.050603 0.623316 -29.986786 8.841859 -13.269630 43.248535 -14.235261 -10.851768 -30.214508 nan nan nan -4.065380 -0.176735 12.051625 -4.765679 0.637715 7.667594 -2.095347 -0.547309 -6.987979 -5.832952 -6.101507 -6.410530 12.919389 -9.540085 -22.161377 -22.560356 -3.028282 -3.876707 -29.048643 -8.395275 11.758704 160.204883 -65.639851 -136.900640 -8.977251 -16.972798 24.287971 15.783384 6.976520 1.918159 39.335360 -7.516926 9.603406 69.727410 75.601621 84.998140 16.122502 21.342333 -9.255197 
54.082279 18.188583 79.816719 79.127898 -15.521266 99.207112 3.785135 -8.575063 -6.909986 -16.997051 -0.875011 72.552804 0.038193 5.974696 -10.769822 nan nan nan 10.410457 0.971008 -28.456866 8.737784 -12.281759 44.298911 -15.119319 -12.026890 -31.195966 nan nan nan -3.708750 0.715048 13.181719 -4.687158 0.988873 6.521436 -2.089850 -0.224369 -5.846751 -5.747473 -7.036710 -6.842732 12.283499 -10.417104 -22.194317 -23.004120 -2.430218 -4.179736 -29.813292 -7.054766 12.594879 161.385029 -67.479964 -137.357210 -8.676875 -16.670878 22.798430 16.539984 7.151684 0.642568 38.966592 -6.547339 9.732166 71.708399 77.190687 87.190717 14.563336 20.662835 -9.809640 
55.631233 18.370783 79.344681 77.043009 -15.161636 98.957686 4.582379 -8.507758 -9.294360 -15.097604 2.613268 76.822750 0.886398 7.411594 -11.604748 nan nan nan 10.750305 1.594589 -26.882722 8.552413 -11.439426 45.508272 -15.256430 -12.221908 -31.750560 nan nan nan -3.076092 1.613239 14.566008 -4.616420 1.464622 5.395143 -2.101549 0.130558 -4.992910 -5.946995 -7.821112 -6.964378 11.719554 -11.027781 -22.492138 -23.749637 -1.916486 -4.256124 -30.582262 -5.227143 13.182909 162.362146 -69.005466 -138.066876 -9.458043 -16.360037 21.469429 17.359864 7.489013 -0.374808 38.306370 -5.244447 9.300767 75.625777 78.493997 90.903481 15.048882 20.016564 -9.322596 
57.191635 18.509720 78.937813 74.665127 -14.668458 98.901832 5.577121 -8.279136 -11.830247 -13.277122 5.619887 80.890630 1.725217 8.701535 -12.362853 nan nan nan 11.099685 2.346238 -25.240372 8.290384 -10.590385 46.568906 -14.739154 -11.499883 -32.193456 nan nan nan -2.448870 2.467907 15.727797 -4.494321 2.039623 4.786267 -2.095295 0.488784 -4.548715 -6.256631 -8.404897 -7.093510 11.244236 -11.502575 -23.031451 -24.581263 -1.189816 -4.234820 -31.414968 -3.070871 13.660896 162.992315 -70.445860 -138.351795 -10.474290 -16.405314 20.567170 18.127868 7.828856 -0.999371 37.463373 -3.189106 8.821646 80.258671 79.632281 95.219856 15.293050 19.808402 -9.420308 
58.731255 18.584257 78.592606 72.120085 -14.103421 99.072296 6.617634 -7.818050 -14.723213 -11.598182 8.029218 84.895366 2.729440 9.913777 -13.005127 nan nan nan 11.482268 3.179789 -23.571004 8.098339 -9.665773 47.256887 -13.822205 -10.669472 -32.920574 nan nan nan -1.951875 3.251432 16.693263 -4.340122 2.606806 4.457554 -2.057802 0.851444 -4.397484 -6.525032 -8.852307 -7.294731 10.890381 -11.627350 -23.714066 -25.329048 -0.273756 -3.880786 -32.300046 -0.665181 13.906643 163.436267 -71.744299 -138.348954 -10.307189 -16.837299 19.609818 18.693822 8.184748 -1.277138 36.659916 -0.417582 8.267023 84.153471 80.469708 99.167026 13.364093 20.096479 -10.057120 
60.300304 18.619532 78.302216 69.657675 -13.577746 99.257949 7.600103 -7.341947 -17.756320 -10.024012 9.887893 88.813541 3.989714 10.782287 -13.921621 nan nan nan 11.717136 3.897725 -21.702637 8.254387 -8.502384 47.513436 -13.064021 -10.022971 -34.109204 nan nan nan -1.539716 3.824038 17.462435 -4.212287 3.024357 4.408309 -2.064911 1.321889 -4.369118 -6.577941 -9.178165 -7.612326 10.463832 -11.475890 -24.375845 -25.698711 1.009206 -3.213345 -33.532536 1.624720 13.870349 163.768237 -72.636399 -138.251220 -11.580583 -16.366937 19.307871 19.200749 8.365785 -0.956831 36.067266 3.111582 7.071444 89.236658 81.722208 105.156275 13.395328 19.207987 -8.290648 
61.899666 18.571056 78.086761 67.157597 -13.177245 99.386862 8.452071 -6.764770 -20.721857 -8.664123 11.315085 92.409481 5.318386 11.299819 -15.047678 nan nan nan 11.723106 4.510250 -19.627836 8.673526 -7.106021 47.560019 -12.475753 -9.502283 -35.474355 nan nan nan -1.351680 4.295837 18.188653 -4.159184 3.432035 4.650475 -2.137147 1.844865 -4.570069 -6.379510 -9.338177 -8.151273 9.950967 -11.341583 -24.805689 -25.730550 2.618816 -2.676786 -34.768641 3.809580 13.877517 164.789419 -73.417151 -138.873365 -12.697429 -15.928931 19.225387 19.629550 8.390588 -0.650378 35.553037 7.056420 6.091977 94.242068 82.876780 110.335830 13.549336 18.607963 -7.447981 
63.511841 18.430885 77.932449 64.656914 -12.976705 99.499599 9.163131 -6.190245 -23.632330 -7.734790 12.468961 95.494642 6.762614 11.494335 -16.328851 nan nan nan 11.440489 4.828052 -17.440922 9.136788 -5.654744 47.497395 -11.968247 -8.839687 -36.697266 nan nan nan -1.432394 4.922218 18.992492 -4.177890 3.731716 4.748739 -2.243058 2.333805 -4.690235 -5.902027 -9.241802 -8.744591 9.480040 -11.335936 -25.238179 -25.240052 4.419945 -2.304261 -36.345856 5.802000 13.822741 166.739345 -74.245368 -140.101138 -13.026393 -15.535886 18.695707 19.948779 8.453646 -0.356977 35.172323 11.030617 5.167594 99.018213 83.943146 115.405803 13.269063 18.126046 -7.043596 
65.132423 18.235846 77.808746 62.371966 -12.934603 99.703605 9.694065 -5.761645 -26.776020 -7.127815 13.325575 98.157848 8.050153 11.396807 -17.738589 nan nan nan 10.986434 4.830274 -15.411974 9.481048 -4.145856 47.414285 -11.310189 -8.229042 -37.833521 nan nan nan -1.539857 5.654186 19.591307 -4.312213 3.810250 4.584821 -2.429425 2.786789 -4.420030 -5.330738 -9.040668 -9.404965 9.288353 -11.472448 -25.533083 -24.581195 6.042445 -2.018450 -37.921704 7.879954 13.579305 169.087526 -74.776982 -141.735701 -12.972733 -15.120777 18.005046 20.305567 8.824841 -0.105781 35.010224 14.528003 4.346607 106.110843 85.244379 122.003178 12.502743 17.786157 -6.918834 
66.764214 18.000467 77.739166 60.202520 -13.042979 100.164826 10.140462 -5.414370 -30.271015 -6.568063 14.033561 100.322243 8.953902 10.791140 -19.248426 nan nan nan 10.280586 4.628840 -13.743796 9.462526 -2.795411 47.322924 -10.710157 -7.493273 -38.769277 nan nan nan -1.735845 6.404868 19.706920 -4.563556 3.831185 4.682553 -2.703866 3.264704 -4.282925 -4.757486 -8.738111 -9.984799 9.303790 -11.833893 -25.637658 -24.107890 7.445826 -1.763411 -38.972480 10.190493 13.484236 171.509478 -74.884277 -143.551301 -12.083941 -15.111294 18.077217 20.624811 9.509708 0.444081 35.279978 17.438164 3.922384 126.062116 86.980502 139.402874 10.757433 18.184697 -7.361613 
